<?xml version="1.0" encoding="UTF-8"?>
<svg width="378px" height="74px" viewBox="0 0 378 74" version="1.1" xmlns="http://www.w3.org/2000/svg" xmlns:xlink="http://www.w3.org/1999/xlink">
    <!-- Generator: Sketch 57.1 (83088) - https://sketch.com -->
    <title>Logo--main</title>
    <desc>Created with Sketch.</desc>
    <defs>
        <path d="M2.91992188,50 L2.91992188,12.7597656 L8.10839844,12.7597656 L8.10839844,46.2714844 L17.609375,46.2714844 L17.609375,50 L2.91992188,50 Z M31.2072266,50.4042969 C29.3504465,50.4042969 27.7594793,50.1272814 26.4342774,49.5732422 C25.1090754,49.019203 24.0571654,48.2031304 23.2785157,47.125 C22.4998659,46.0468696 21.9308612,44.7890697 21.5714844,43.3515625 C21.2121076,41.9140553 21.0324219,40.2369887 21.0324219,38.3203125 L21.0324219,24.2148438 C21.0324219,20.3365692 21.8222903,17.3979592 23.4020508,15.3989258 C24.9818113,13.3998923 27.5835106,12.4003906 31.2072266,12.4003906 C34.8159686,12.4003906 37.4139244,13.4073793 39.0011719,15.4213867 C40.5884194,17.4353942 41.3820313,20.3665172 41.3820313,24.2148438 L41.3820313,38.3427734 C41.3820313,42.221048 40.584676,45.2008359 38.9899414,47.2822266 C37.3952069,49.3636172 34.8009946,50.4042969 31.2072266,50.4042969 Z M28.6691407,45.8671875 C29.3429722,46.1816422 30.1889923,46.3388672 31.2072266,46.3388672 C32.2254609,46.3388672 33.0677376,46.1816422 33.7340821,45.8671875 C34.4004265,45.5527328 34.9057926,45.0735709 35.2501953,44.4296875 C35.5945981,43.7858041 35.8304356,43.0782916 35.9577149,42.3071289 C36.0849942,41.5359662 36.1486328,40.5813859 36.1486328,39.4433594 L36.1486328,23.1367188 C36.1486328,22.0136663 36.0849942,21.0778032 35.9577149,20.3291016 C35.8304356,19.5803999 35.5945981,18.8916047 35.2501953,18.2626953 C34.9057926,17.6337859 34.4004265,17.1733413 33.7340821,16.8813477 C33.0677376,16.589354 32.2254609,16.4433594 31.2072266,16.4433594 C30.1889923,16.4433594 29.3467156,16.589354 28.6803711,16.8813477 C28.0140267,17.1733413 27.5086606,17.6337859 27.1642578,18.2626953 C26.8198551,18.8916047 26.5840176,19.5803999 26.4567383,20.3291016 C26.329459,21.0778032 26.2658203,22.0136663 26.2658203,23.1367188 L26.2658203,39.4433594 C26.2658203,40.5813859 26.329459,41.5359662 26.4567383,42.3071289 C26.5840176,43.0782916 26.8198551,43.7858041 27.1642578,44.4296875 C27.5086606,45.0735709 28.0102832,45.5527328 28.6691407,45.8671875 Z M52.5765626,28.3027344 L55.6312501,28.3027344 C57.7725368,28.3027344 59.2586873,27.827316 60.0897462,26.8764648 C60.920805,25.9256137 61.3363282,24.3271597 61.3363282,22.0810547 C61.3363282,21.3473271 61.2839199,20.7071967 61.1791016,20.1606445 C61.0742834,19.6140923 60.9395191,19.1461608 60.7748048,18.7568359 C60.6100904,18.3675111 60.3592791,18.0418307 60.0223633,17.7797852 C59.6854476,17.5177396 59.3447935,17.3081063 59.0003907,17.1508789 C58.6559879,16.9936516 58.1880564,16.8738611 57.5965821,16.7915039 C57.0051078,16.7091467 56.4361031,16.6567384 55.8895508,16.6342773 C55.3429986,16.6118163 54.6429731,16.6005859 53.7894532,16.6005859 L52.5765626,16.6005859 L52.5765626,28.3027344 Z M52.5765626,46.2714844 L56.0804688,46.2714844 C58.3265738,46.2714844 59.8613892,45.7436576 60.684961,44.6879883 C61.5085328,43.6323189 61.9203126,41.8541792 61.9203126,39.3535156 C61.9203126,36.9726443 61.4299203,35.1945046 60.4491212,34.019043 C59.468322,32.8435814 57.8698679,32.2558594 55.653711,32.2558594 L52.5765626,32.2558594 L52.5765626,46.2714844 Z M47.388086,50 L47.388086,12.7597656 L55.9007813,12.7597656 C59.2849128,12.7597656 61.7930258,13.515943 63.4251954,15.0283203 C65.057365,16.5406977 65.8734376,18.8915856 65.8734376,22.0810547 C65.8734376,26.8278232 64.0915543,29.4482397 60.5277344,29.9423828 C62.7289173,30.481448 64.3348583,31.5183843 65.3456055,33.0532227 C66.3563528,34.5880611 66.8617188,36.6881377 66.8617188,39.3535156 C66.8617188,42.7076991 66.0755939,45.3206287 64.5033204,47.1923828 C62.9310469,49.064137 60.5277506,50 57.2933594,50 L47.388086,50 Z M81.1109376,50.4042969 C77.9813647,50.4042969 75.5967856,49.4384862 73.957129,47.5068359 C72.3174724,45.5751857 71.4003266,42.9323084 71.2056642,39.578125 L75.8326173,38.3203125 C76.162046,43.6510683 77.9214685,46.3164062 81.1109376,46.3164062 C82.4436266,46.3164062 83.4581021,45.9458045 84.1543946,45.2045898 C84.8506872,44.4633752 85.1988282,43.3740306 85.1988282,41.9365234 C85.1988282,41.1428997 85.1052419,40.41667 84.9180665,39.7578125 C84.7308911,39.098955 84.423928,38.4700551 83.9971681,37.8710938 C83.5704081,37.2721324 83.1661153,36.7742533 82.7842774,36.3774414 C82.4024396,35.9806295 81.859639,35.4528028 81.1558595,34.7939453 L74.9117189,29.2460938 C73.6539001,28.1080672 72.7367543,26.9064191 72.160254,25.6411133 C71.5837537,24.3758075 71.2955079,22.8297617 71.2955079,21.0029297 C71.2955079,18.3076037 72.0778894,16.2075271 73.6426759,14.7026367 C75.2074624,13.1977464 77.3449735,12.4303387 80.0552735,12.4003906 C83.0351061,12.3554685 85.2662036,13.1228762 86.7486329,14.7026367 C88.2310622,16.2823972 89.1220038,18.7268715 89.4214845,22.0361328 L85.0416017,23.2490234 C84.9817055,22.4404256 84.8993496,21.7216828 84.7945314,21.0927734 C84.6897131,20.463864 84.5175143,19.8312206 84.2779298,19.1948242 C84.0383453,18.5584278 83.746356,18.0418314 83.4019532,17.6450195 C83.0575505,17.2482077 82.6008493,16.9337577 82.031836,16.7016602 C81.4628228,16.4695626 80.8039752,16.3759763 80.0552735,16.4208984 C77.3150255,16.6155609 75.944922,17.9781775 75.944922,20.5087891 C75.944922,21.6018935 76.1320946,22.5152958 76.5064454,23.2490234 C76.8807962,23.9827511 77.5096962,24.7539022 78.3931642,25.5625 L84.6822267,31.1103516 C86.3143963,32.5778068 87.6133742,34.1500567 88.5791993,35.8271484 C89.5450245,37.5042402 90.0279298,39.4059138 90.0279298,41.5322266 C90.0279298,44.2575006 89.2043703,46.4174725 87.5572267,48.012207 C85.910083,49.6069416 83.7613415,50.4042969 81.1109376,50.4042969 Z M98.7966798,50 L98.7966798,16.6005859 L91.9910158,16.6005859 L91.9910158,12.7597656 L110.54375,12.7597656 L110.54375,16.6005859 L103.985156,16.6005859 L103.985156,50 L98.7966798,50 Z M114.258789,50 L114.258789,12.7597656 L128.678711,12.7597656 L128.678711,16.6005859 L119.447266,16.6005859 L119.447266,28.9091797 L126.949219,28.9091797 L126.949219,32.6152344 L119.447266,32.6152344 L119.447266,46.2714844 L128.791016,46.2714844 L128.791016,50 L114.258789,50 Z M139.042188,28.796875 L140.996289,28.796875 C143.257368,28.796875 144.870796,28.3514042 145.836621,27.4604492 C146.802446,26.5694942 147.285352,24.9560664 147.285352,22.6201172 C147.285352,20.3590382 146.869829,18.7718145 146.03877,17.8583984 C145.207711,16.9449824 143.639204,16.4882812 141.333203,16.4882812 L139.042188,16.4882812 L139.042188,28.796875 Z M133.853711,50 L133.853711,12.7597656 L141.333203,12.7597656 C145.10666,12.7597656 147.873071,13.5309168 149.63252,15.0732422 C151.391969,16.6155676 152.27168,19.1311675 152.27168,22.6201172 C152.27168,27.4118078 150.736865,30.3092398 147.667188,31.3125 L152.99043,50 L147.95918,50 L143.062696,32.5253906 L139.042188,32.5253906 L139.042188,50 L133.853711,50 Z M157.91836,50 L157.91836,44.5419922 L162.859766,44.5419922 L162.859766,50 L157.91836,50 Z M177.423438,50.4042969 C175.881112,50.4042969 174.525983,50.1946636 173.358008,49.7753906 C172.190033,49.3561177 171.235453,48.787113 170.494239,48.0683594 C169.753024,47.3496058 169.146585,46.4549207 168.674903,45.3842773 C168.203221,44.313634 167.87754,43.1868549 167.697852,42.0039062 C167.518163,40.8209576 167.428321,39.4957756 167.428321,38.0283203 L167.428321,24.8662109 C167.428321,23.2939375 167.521907,21.8938863 167.709082,20.6660156 C167.896258,19.4381449 168.221938,18.2926485 168.686133,17.2294922 C169.150328,16.1663358 169.756767,15.290368 170.505469,14.6015625 C171.254171,13.912757 172.208751,13.3736999 173.369239,12.984375 C174.529726,12.5950501 175.881112,12.4003906 177.423438,12.4003906 C180.777621,12.4003906 183.180917,13.306306 184.633399,15.1181641 C186.08588,16.9300221 186.81211,19.59536 186.81211,23.1142578 L186.81211,26.0791016 L181.893164,26.0791016 L181.893164,23.4511719 C181.893164,22.8821586 181.889421,22.4366878 181.881934,22.1147461 C181.874447,21.7928044 181.859473,21.392255 181.837012,20.9130859 C181.814551,20.4339169 181.773373,20.0595717 181.713477,19.7900391 C181.653581,19.5205065 181.574968,19.2060565 181.477637,18.8466797 C181.380306,18.4873029 181.256772,18.206544 181.107032,18.0043945 C180.957291,17.8022451 180.770119,17.5851249 180.545508,17.3530273 C180.320898,17.1209298 180.066343,16.948731 179.781836,16.8364258 C179.49733,16.7241205 179.160419,16.6305342 178.771094,16.5556641 C178.381769,16.4807939 177.947529,16.4433594 177.46836,16.4433594 C176.749606,16.4433594 176.120706,16.5219719 175.581641,16.6791992 C175.042576,16.8364266 174.600848,17.0834944 174.256446,17.4204102 C173.912043,17.7573259 173.631284,18.1279277 173.41416,18.5322266 C173.197037,18.9365255 173.036069,19.4568653 172.93125,20.0932617 C172.826432,20.7296581 172.755306,21.3435843 172.717871,21.9350586 C172.680436,22.5265329 172.661719,23.2565061 172.661719,24.125 L172.661719,38.859375 C172.661719,41.6595192 173.013604,43.6061143 173.717383,44.6992188 C174.421163,45.7923232 175.671476,46.3388672 177.46836,46.3388672 C178.157165,46.3388672 178.752374,46.2639981 179.254004,46.1142578 C179.755634,45.9645175 180.167414,45.7174496 180.489356,45.3730469 C180.811297,45.0286441 181.069596,44.6692727 181.264258,44.2949219 C181.458921,43.920571 181.601172,43.415205 181.691016,42.7788086 C181.78086,42.1424122 181.837012,41.5546902 181.859473,41.015625 C181.881934,40.4765598 181.893164,39.7727908 181.893164,38.9042969 L181.893164,36.1640625 L186.81211,36.1640625 L186.81211,38.9267578 C186.81211,40.349291 186.722267,41.6220647 186.542578,42.7451172 C186.36289,43.8681697 186.055927,44.9200797 185.62168,45.9008789 C185.187433,46.8816781 184.618428,47.6940072 183.914649,48.3378906 C183.210869,48.9817741 182.312441,49.4871401 181.219336,49.8540039 C180.126232,50.2208677 178.860945,50.4042969 177.423438,50.4042969 Z M197.961719,36.9052734 L204.183399,36.9052734 L201.061328,20.0820312 L197.961719,36.9052734 Z M190.594532,50 L198.545703,12.7597656 L203.554492,12.7597656 L211.505664,50 L206.564258,50 L204.857227,40.6113281 L197.287891,40.6113281 L195.513477,50 L190.594532,50 Z M221.330078,28.796875 L223.28418,28.796875 C225.545259,28.796875 227.158687,28.3514042 228.124512,27.4604492 C229.090337,26.5694942 229.573243,24.9560664 229.573243,22.6201172 C229.573243,20.3590382 229.157719,18.7718145 228.32666,17.8583984 C227.495602,16.9449824 225.927095,16.4882812 223.621094,16.4882812 L221.330078,16.4882812 L221.330078,28.796875 Z M216.141602,50 L216.141602,12.7597656 L223.621094,12.7597656 C227.39455,12.7597656 230.160962,13.5309168 231.92041,15.0732422 C233.679859,16.6155676 234.559571,19.1311675 234.559571,22.6201172 C234.559571,27.4118078 233.024755,30.3092398 229.955078,31.3125 L235.278321,50 L230.247071,50 L225.350586,32.5253906 L221.330078,32.5253906 L221.330078,50 L216.141602,50 Z M240.880079,50 L240.880079,12.7597656 L248.966016,12.7597656 C252.994031,12.7597656 255.835311,13.6731679 257.489942,15.5 C259.144572,17.3268321 259.971875,20.2018033 259.971875,24.125 L259.971875,37.8261719 C259.971875,41.9140829 259.152059,44.9649964 257.512403,46.9790039 C255.872746,48.9930114 253.151256,50 249.347852,50 L240.880079,50 Z M246.068555,46.2714844 L248.988477,46.2714844 C249.782101,46.2714844 250.482126,46.1928719 251.088575,46.0356445 C251.695023,45.8784172 252.200389,45.6912446 252.604688,45.4741211 C253.008987,45.2569976 253.349641,44.9088566 253.626661,44.4296875 C253.90368,43.9505184 254.113313,43.5087911 254.255567,43.1044922 C254.39782,42.7001933 254.50638,42.1012409 254.58125,41.3076172 C254.656121,40.5139934 254.701042,39.8364286 254.716016,39.2749023 C254.73099,38.7133761 254.738477,37.901047 254.738477,36.8378906 L254.738477,24.7314453 C254.738477,23.8330033 254.723503,23.076826 254.693555,22.4628906 C254.663607,21.8489553 254.603712,21.2350291 254.513868,20.6210938 C254.424023,20.0071584 254.289259,19.5055358 254.109571,19.1162109 C253.929882,18.7268861 253.697788,18.3562843 253.413282,18.0043945 C253.128775,17.6525048 252.77689,17.3829762 252.357618,17.1958008 C251.938345,17.0086254 251.444209,16.8626307 250.875196,16.7578125 C250.306182,16.6529943 249.639848,16.6005859 248.876172,16.6005859 L246.068555,16.6005859 L246.068555,46.2714844 Z M274.737696,50.4042969 C271.608123,50.4042969 269.223544,49.4384862 267.583887,47.5068359 C265.94423,45.5751857 265.027085,42.9323084 264.832422,39.578125 L269.459375,38.3203125 C269.788804,43.6510683 271.548227,46.3164062 274.737696,46.3164062 C276.070385,46.3164062 277.08486,45.9458045 277.781153,45.2045898 C278.477445,44.4633752 278.825586,43.3740306 278.825586,41.9365234 C278.825586,41.1428997 278.732,40.41667 278.544825,39.7578125 C278.357649,39.098955 278.050686,38.4700551 277.623926,37.8710938 C277.197166,37.2721324 276.792873,36.7742533 276.411036,36.3774414 C276.029198,35.9806295 275.486397,35.4528028 274.782618,34.7939453 L268.538477,29.2460938 C267.280658,28.1080672 266.363512,26.9064191 265.787012,25.6411133 C265.210512,24.3758075 264.922266,22.8297617 264.922266,21.0029297 C264.922266,18.3076037 265.704648,16.2075271 267.269434,14.7026367 C268.83422,13.1977464 270.971732,12.4303387 273.682032,12.4003906 C276.661864,12.3554685 278.892962,13.1228762 280.375391,14.7026367 C281.85782,16.2823972 282.748762,18.7268715 283.048243,22.0361328 L278.66836,23.2490234 C278.608464,22.4404256 278.526108,21.7216828 278.421289,21.0927734 C278.316471,20.463864 278.144272,19.8312206 277.904688,19.1948242 C277.665103,18.5584278 277.373114,18.0418314 277.028711,17.6450195 C276.684309,17.2482077 276.227607,16.9337577 275.658594,16.7016602 C275.089581,16.4695626 274.430733,16.3759763 273.682032,16.4208984 C270.941784,16.6155609 269.57168,17.9781775 269.57168,20.5087891 C269.57168,21.6018935 269.758853,22.5152958 270.133204,23.2490234 C270.507554,23.9827511 271.136454,24.7539022 272.019922,25.5625 L278.308985,31.1103516 C279.941154,32.5778068 281.240132,34.1500567 282.205957,35.8271484 C283.171783,37.5042402 283.654688,39.4059138 283.654688,41.5322266 C283.654688,44.2575006 282.831128,46.4174725 281.183985,48.012207 C279.536841,49.6069416 277.3881,50.4042969 274.737696,50.4042969 Z" id="path-1"></path>
        <filter x="-0.2%" y="-1.3%" width="100.4%" height="105.3%" filterUnits="objectBoundingBox" id="filter-2">
            <feOffset dx="0" dy="1" in="SourceAlpha" result="shadowOffsetOuter1"></feOffset>
            <feColorMatrix values="0 0 0 0 0.145098039   0 0 0 0 0.149019608   0 0 0 0 0.152941176  0 0 0 1 0" type="matrix" in="shadowOffsetOuter1"></feColorMatrix>
        </filter>
        <path d="M34.9329902,65.2468645 C32.4395508,65.2468645 30.0927843,63.6215753 29.0660739,61.2575184 L13.2254001,19.1477536 C13.2254001,19.1477536 13.2254001,19 13.2254001,19 L1.1982218,29.9337635 C-0.268507257,31.2635455 -0.415180163,33.6276025 0.904875991,35.2528917 L30.8261488,68.79295 C32.146205,70.2704856 34.4929715,70.4182391 36.1063734,69.0884571 L43,62.8828075 L37.4264296,65.0991109 C36.5463921,65.0991109 35.8130276,65.2468645 34.9329902,65.2468645 Z" id="path-3"></path>
        <filter x="-0.6%" y="-0.5%" width="101.2%" height="102.0%" filterUnits="objectBoundingBox" id="filter-4">
            <feOffset dx="0" dy="0.5" in="SourceAlpha" result="shadowOffsetOuter1"></feOffset>
            <feColorMatrix values="0 0 0 0 0.145098039   0 0 0 0 0.149019608   0 0 0 0 0.152941176  0 0 0 1 0" type="matrix" in="shadowOffsetOuter1"></feColorMatrix>
        </filter>
        <path d="M32.2163325,53.4732225 C27.0047442,6.75387765 27.4514517,11.3958638 27.3025492,9 C23.7288886,10.3476734 23.1332785,10.6471564 17.4749826,12.8932787 C15.5392498,13.6419862 14.4969322,15.738367 15.2414448,17.8347479 L31.4718199,60.5110725 C32.2163325,62.4577119 34.4498703,63.5059023 36.3856032,62.7571948 L48,58.2649501 L39.2147511,59.1633991 C35.7899931,59.4628821 32.6630401,56.9172767 32.2163325,53.4732225 Z" id="path-5"></path>
        <filter x="-0.8%" y="-0.5%" width="101.5%" height="101.9%" filterUnits="objectBoundingBox" id="filter-6">
            <feOffset dx="0" dy="0.5" in="SourceAlpha" result="shadowOffsetOuter1"></feOffset>
            <feColorMatrix values="0 0 0 0 0.145098039   0 0 0 0 0.149019608   0 0 0 0 0.152941176  0 0 0 1 0" type="matrix" in="shadowOffsetOuter1"></feColorMatrix>
        </filter>
        <path d="M70.9897837,48.5054641 L65.9449755,3.31887781 C65.6482221,1.23104874 63.8677016,-0.260257737 61.7904276,0.0380035589 L50.3654208,1.38017939 C32.8569689,3.31887781 35.5277497,3.02061651 33.3020991,3.31887781 C31.2248251,3.6171391 29.741058,5.40670688 30.0378114,7.49453594 C30.0378114,7.49453594 35.0826196,52.6811222 35.0826196,52.6811222 C35.379373,54.7689513 37.1598936,56.2602577 39.2371675,55.9619964 C61.9388043,53.4267754 63.7193248,53.2776448 67.5771193,52.6811222 C69.6543933,52.5319915 71.1381604,50.5932931 70.9897837,48.5054641 Z" id="path-7"></path>
        <filter x="-1.2%" y="-0.9%" width="102.4%" height="103.6%" filterUnits="objectBoundingBox" id="filter-8">
            <feOffset dx="0" dy="1" in="SourceAlpha" result="shadowOffsetOuter1"></feOffset>
            <feColorMatrix values="0 0 0 0 0.145098039   0 0 0 0 0.149019608   0 0 0 0 0.152941176  0 0 0 1 0" type="matrix" in="shadowOffsetOuter1"></feColorMatrix>
        </filter>
        <polygon id="path-9" points="35 10 37 9.84615385 35.7272727 8"></polygon>
        <filter x="-25.0%" y="-25.0%" width="150.0%" height="200.0%" filterUnits="objectBoundingBox" id="filter-10">
            <feOffset dx="0" dy="1" in="SourceAlpha" result="shadowOffsetOuter1"></feOffset>
            <feColorMatrix values="0 0 0 0 0.145098039   0 0 0 0 0.149019608   0 0 0 0 0.152941176  0 0 0 1 0" type="matrix" in="shadowOffsetOuter1"></feColorMatrix>
        </filter>
    </defs>
    <g id="Logo--main" stroke="none" stroke-width="1" fill="none" fill-rule="evenodd">
        <g id="Group" transform="translate(3.000000, 0.000000)">
            <g id="Group-2">
                <g id="Group-3" transform="translate(89.000000, 0.000000)" fill-rule="nonzero">
                    <g id="LOBSTER.CARDS">
                        <use fill="black" fill-opacity="1" filter="url(#filter-2)" xlink:href="#path-1"></use>
                        <use fill="#BB0A21" xlink:href="#path-1"></use>
                    </g>
                </g>
                <g id="noun_gambling_2172796" transform="translate(0.000000, 1.000000)">
                    <g id="Path">
                        <use fill="black" fill-opacity="1" filter="url(#filter-4)" xlink:href="#path-3"></use>
                        <use fill="#BB0A21" fill-rule="evenodd" xlink:href="#path-3"></use>
                    </g>
                    <g id="Path">
                        <use fill="black" fill-opacity="1" filter="url(#filter-6)" xlink:href="#path-5"></use>
                        <use fill="#BB0A21" fill-rule="evenodd" xlink:href="#path-5"></use>
                    </g>
                    <polygon id="Path" fill="#BB0A21" fill-rule="nonzero" points="48.55 57.55 48.65 57.45 48.35 57.55"></polygon>
                    <g id="Shape">
                        <use fill="black" fill-opacity="1" filter="url(#filter-8)" xlink:href="#path-7"></use>
                        <use fill="#BB0A21" fill-rule="evenodd" xlink:href="#path-7"></use>
                    </g>
                    <g id="lobster-b" transform="translate(51.692286, 30.267109) rotate(-7.000000) translate(-51.692286, -30.267109) translate(32.192286, 6.267109)" fill="#FFFFFF" fill-rule="nonzero">
                        <path d="M30.4171554,30.6833816 L27.1982052,28.8796096 L24.7237536,26.5236153 C24.9326657,26.2631199 25.130222,26.0049693 25.316434,25.7480502 L27.2161603,27.3517451 C27.2543377,27.3858659 27.2971056,27.4143717 27.341041,27.4395249 C27.4615829,27.5084207 27.6005891,27.5448341 27.7433726,27.5444638 L31.9779502,27.5527929 C32.4357433,27.553603 32.8134234,27.1900282 32.825045,26.7411821 C32.8351174,26.2912342 32.4728487,25.9264409 32.0150442,25.9267444 L28.0807434,25.9197488 L26.2068542,24.3380547 C26.2183929,24.3178924 26.2310764,24.2966047 26.2403372,24.2775795 C27.0455978,22.6635909 27.7097889,20.7727013 27.6304053,19.1233669 C28.2970279,18.6510101 29.0519992,17.9617224 28.8088267,17.3652036 C28.5944566,16.8329667 27.8131503,16.9969712 27.115686,17.2725647 C26.8083973,16.7401799 26.3587953,16.2727416 25.7143253,15.9119943 C25.0687334,15.5501451 24.4277001,15.4064883 23.799833,15.4152398 C23.6962143,14.691449 23.4533607,13.9535165 22.8700364,14.0386344 C22.2174897,14.1333793 21.9808029,15.1123502 21.8921633,15.9094008 C20.3829234,16.6677672 19.0269384,18.1716781 17.9918239,19.6577794 C17.9791748,19.6757264 17.9676131,19.6981159 17.954964,19.7160628 L15.6082718,18.9331844 L13.631943,15.6300201 C13.4047191,15.2460079 12.8971743,15.1243468 12.5004328,15.3578439 C12.1048247,15.5913293 11.9705065,16.0915587 12.2011303,16.4755355 L14.327835,20.0321213 C14.3979975,20.1516468 14.5012313,20.2507861 14.622918,20.3185566 C14.6668648,20.3425962 14.7131011,20.3643851 14.7639278,20.380559 L17.1433711,21.1742317 C17.0089933,21.4595624 16.8767792,21.7548918 16.7489953,22.0601964 L13.4108651,21.1584584 L10.1907816,19.3546982 C9.79643898,19.1338755 9.28848495,19.2727701 9.05670239,19.6637789 C8.8237751,20.0559132 8.95467035,20.5511596 9.34900157,20.7730959 L12.6592224,22.627139 C12.7166888,22.6588324 12.7787454,22.6849107 12.8442935,22.7020451 L16.1632263,23.5973018 C16.0068369,24.0398602 15.8629366,24.4800619 15.725939,24.9101706 L13.6852066,24.5683865 C13.6048915,24.554746 13.5199174,24.5534021 13.4382174,24.5642723 L9.206943,25.1170967 C8.75306559,25.1763732 8.42478162,25.5850868 8.47687238,26.0299327 C8.50589455,26.293523 8.66230289,26.5112508 8.87862585,26.6325978 C9.02735146,26.7156759 9.20487821,26.7528025 9.39096692,26.7285994 L13.4962857,26.1926724 L15.2519544,26.4861992 C14.8838208,27.7961225 14.6667659,28.7392584 14.6667659,28.7392584 C14.6667659,28.7392584 12.4940569,28.4489518 13.0894698,31.3800927 C13.0894698,31.3800927 11.4581546,31.1153373 11.7253547,33.6757636 C11.7253547,33.6757636 8.08517637,34.0487446 5.86022537,34.1008156 C5.86022537,34.1008156 5.64703638,36.7642191 8.26101541,37.6712553 C8.26101541,37.6712553 8.85351,39.6726809 10.9097171,40.8249087 C12.9659242,41.9771366 15.0482011,41.4733669 15.0482011,41.4733669 C17.1652006,43.2162145 19.4345967,41.7050388 19.4345967,41.7050388 C18.3673566,39.8087587 16.8777034,36.5628912 16.8777034,36.5628912 C19.294284,35.5055944 18.2418299,34.2661067 18.2418299,34.2661067 C21.1549312,33.3005219 19.8067399,31.6176068 19.8067399,31.6176068 C19.8067399,31.6176068 20.5386908,30.9630758 21.5219889,29.9986159 L22.6630354,31.3284873 L24.2418807,35.0477653 C24.31154,35.2162885 24.4348529,35.3463963 24.5835671,35.430588 C24.8010234,35.5519232 25.0727621,35.5735957 25.3220166,35.467453 C25.7442749,35.2871372 25.9463733,34.8073594 25.7715554,34.3960794 L24.1462781,30.5637102 C24.115312,30.4894297 24.0707007,30.4197448 24.0180763,30.3579374 L22.6922663,28.8128597 C23.0072607,28.4844538 23.326937,28.1415242 23.6433048,27.7897212 L26.1020505,30.1302901 C26.1503019,30.1765544 26.2054101,30.21718 26.2628764,30.2488734 L29.5730973,32.1029165 C29.96744,32.3237391 30.475394,32.1848445 30.7071766,31.7938357 C30.9423933,31.3994507 30.811498,30.9042043 30.4171554,30.6833816 Z" id="Path" transform="translate(19.340539, 28.172433) rotate(-30.000000) translate(-19.340539, -28.172433) "></path>
                        <path d="M20.9182768,14.6403783 C20.750004,15.7903997 20.3753901,17.0549836 19.8071535,18.4064668 C21.4900033,18.4991034 23.0785642,17.9858904 24.3972413,17.3171785 C24.6743918,17.2695606 24.9411439,17.2254921 25.2567668,17.164856 C28.1429822,16.61751 30.1102536,15.2480472 31.1043401,13.0914449 C33.1412549,8.67334558 30.3820457,2.60389817 30.2634497,2.3470273 C30.2117413,2.23629344 30.1015173,2.17319981 29.9873481,2.19159309 C29.8752514,2.20996484 29.7551467,2.30183584 29.7579843,2.4291373 C29.8087994,5.25053834 27.8005995,8.38585284 26.1923825,9.40056407 C26.3182257,8.34619502 26.7371669,6.49841064 27.0864153,5.18132253 C27.1166449,5.06285446 27.0806341,4.93704484 26.9933147,4.86338906 C26.9060188,4.78743879 26.7858556,4.78409897 26.6888322,4.84819911 C22.6780748,7.5420317 22.9277584,11.9856961 23.2292902,13.801904 C22.3786547,14.1984719 21.5832732,14.4613991 20.9182768,14.6403783 Z" id="Path" transform="translate(25.829446, 10.302865) rotate(-30.000000) translate(-25.829446, -10.302865) "></path>
                        <path d="M6.45469649,13.9283752 C6.57248589,14.2444243 6.67961021,14.5077054 6.78885171,14.7830826 C6.92902085,16.3029948 7.3464732,17.9951868 8.33645491,19.4831336 C9.18559123,18.3164831 10.0660779,17.370937 10.9609105,16.6654 C10.7539629,15.9735155 10.5508747,15.124056 10.430771,14.1602649 C12.1470686,13.5640674 16.0890503,11.6591243 16.2294553,6.71679708 C16.2329074,6.59888542 16.1645372,6.49053326 16.0517877,6.44763919 C15.9424121,6.40360841 15.8143681,6.43137842 15.7294474,6.51598574 C14.7906333,7.46654449 13.4350381,8.73319918 12.598238,9.35330663 C12.5969784,7.40231024 14.1990238,4.07192078 16.643221,2.76531108 C16.7536714,2.70467461 16.7686824,2.55249191 16.723883,2.44058988 C16.6790837,2.32868784 16.5632547,2.2582847 16.4421618,2.26394962 C16.1584721,2.27901567 9.46719691,2.67904144 6.78493174,6.65189744 C5.4762231,8.59116869 5.36479383,11.0390754 6.45469649,13.9283752 Z" id="Path" transform="translate(11.230073, 10.873382) rotate(-30.000000) translate(-11.230073, -10.873382) "></path>
                    </g>
                    <polygon id="Path" fill="#BB0A21" fill-rule="nonzero" points="64 46.1538462 65.2727273 48 65.4545455 47.3846154 66 46 64.9090909 46.1538462"></polygon>
                    <g id="Path">
                        <use fill="black" fill-opacity="1" filter="url(#filter-10)" xlink:href="#path-9"></use>
                        <use fill="#BB0A21" fill-rule="evenodd" xlink:href="#path-9"></use>
                    </g>
                </g>
            </g>
        </g>
    </g>
</svg>