<?xml version="1.0" encoding="UTF-8"?>
<svg width="142px" height="142px" viewBox="0 0 142 142" version="1.1" xmlns="http://www.w3.org/2000/svg" xmlns:xlink="http://www.w3.org/1999/xlink">
    <!-- Generator: Sketch 57.1 (83088) - https://sketch.com -->
    <title>thumbs-up</title>
    <desc>Created with Sketch.</desc>
    <defs>
        <filter x="-15.0%" y="-15.4%" width="130.0%" height="130.8%" filterUnits="objectBoundingBox" id="filter-1">
            <feOffset dx="0" dy="2" in="SourceAlpha" result="shadowOffsetOuter1"></feOffset>
            <feGaussianBlur stdDeviation="2" in="shadowOffsetOuter1" result="shadowBlurOuter1"></feGaussianBlur>
            <feColorMatrix values="0 0 0 0 0   0 0 0 0 0   0 0 0 0 0  0 0 0 0.5 0" type="matrix" in="shadowBlurOuter1" result="shadowMatrixOuter1"></feColorMatrix>
            <feMerge>
                <feMergeNode in="shadowMatrixOuter1"></feMergeNode>
                <feMergeNode in="SourceGraphic"></feMergeNode>
            </feMerge>
        </filter>
    </defs>
    <g id="UI" stroke="none" stroke-width="1" fill="none" fill-rule="evenodd">
        <g id="thumbs-up">
            <circle id="Oval-Copy" fill="#4C88A2" cx="71" cy="71" r="71"></circle>
            <g id="noun_thumbs-up_983476-copy-2" filter="url(#filter-1)" transform="translate(31.000000, 32.000000)" fill="#FFFFFF">
                <path d="M8.34826681,59.0026247 C10.4642954,59.0026247 12.1802878,60.7186171 12.1802878,62.8346457 C12.1802878,64.9506743 10.4642954,66.6666667 8.34826681,66.6666667 C6.23223821,66.6666667 4.51624581,64.9506743 4.51624581,62.8346457 C4.51624581,60.7186171 6.23223821,59.0026247 8.34826681,59.0026247 Z" id="Path"></path>
                <polygon id="Path" points="21.3268169 32.7378043 0 32.7378043 0 71.0000905 21.3268169 71.0000905"></polygon>
                <path d="M23.8356412,34.6185175 L23.8356412,68.9727577 L31.1557607,71.7331885 C34.2908861,72.8808037 37.8459589,74.1388361 41.2960449,75.0782876 C44.7443208,76.0195493 48.0894199,76.6476604 51.6463028,77.0621776 C55.1995656,77.4821251 58.9609919,77.6902887 61.6779799,77.5889221 C64.396778,77.4839352 66.0711377,77.0639877 67.5373337,76.3326998 C68.9980994,75.6014119 70.2525115,74.5533532 71.1955833,73.403928 C72.1350348,72.2545027 72.763146,71.0000905 73.0762965,69.9556521 C73.3912571,68.9112137 73.3912571,68.0731288 73.4926238,67.236854 C73.5994208,66.3987691 73.8075844,65.5643045 74.0175582,64.9361933 C74.2257218,64.3098923 74.4356955,63.8917549 74.7470359,63.2654539 L75.7950946,61.0697801 C76.1082451,60.3366821 76.3164087,59.7085709 76.4232057,58.8741063 C76.5245724,58.0378315 76.5245724,56.9897728 76.5245724,56.0521314 C76.5245724,55.1108698 76.5245724,54.2727849 76.7345461,53.3351435 C76.9427097,52.3938818 77.3626573,51.3476333 77.6776179,50.5095484 L78.4070957,48.4188614 C78.6188795,47.7925604 78.8270432,47.1662594 78.8270432,46.5381482 C78.8270432,45.9100371 78.6188795,45.2837361 78.4070957,44.6538148 C78.1971219,44.0275138 77.9889583,43.4012128 77.9889583,42.8780885 C77.9889583,42.3549643 78.1971219,41.9368269 78.5120825,41.2037288 C78.8270432,40.4742511 79.2415603,39.4261924 79.4551543,38.2785772 C79.6633179,37.1273418 79.6633179,35.8729297 79.4551543,34.6185175 C79.2415603,33.3677256 78.8270432,32.1078831 78.0939452,30.9602679 C77.3626573,29.8108426 76.3164087,28.7664042 75.1687936,28.0333062 C74.0175582,27.3002082 72.763146,26.8820708 70.2525115,26.672097 C67.7436872,26.4639334 63.9822608,26.4639334 61.5766133,26.3589465 C59.1727758,26.2557698 58.1265273,26.0476061 57.6052131,25.8376324 C57.0820889,25.6276586 57.0820889,25.419495 57.4984161,24.5832202 C57.9183637,23.7469454 58.7528283,22.2843696 59.3809395,20.7149968 C60.0072405,19.145624 60.4289981,17.4748846 60.6371617,15.5905512 C60.8453254,13.709838 60.8453254,11.6191511 60.6371617,9.73843787 C60.4289981,7.85591456 60.0072405,6.18336501 59.1727758,4.72078921 C58.3346909,3.25821341 57.0820889,2.00199113 55.3027423,1.16571635 C53.5252059,0.331251697 51.2263553,-0.0886958096 49.450629,0.0181011856 C47.6730926,0.121277944 46.4168703,0.747578966 45.5824056,2.00199113 C44.7443208,3.25821341 44.3279935,5.1389266 43.9098561,7.54457417 C43.4880985,9.94841162 43.0735813,12.8735632 41.3992216,16.2204724 C39.7266721,19.5637614 36.8015205,23.3269979 34.2782152,26.1507829 C31.7567201,28.9745678 29.6425016,30.855281 27.9663318,32.1133134 C26.2955924,33.3677256 25.0647117,33.9922165 23.8356412,34.6185175 Z" id="Path"></path>
            </g>
        </g>
    </g>
</svg>