<?xml version="1.0" encoding="UTF-8"?>
<svg width="142px" height="142px" viewBox="0 0 142 142" version="1.1" xmlns="http://www.w3.org/2000/svg" xmlns:xlink="http://www.w3.org/1999/xlink">
    <!-- Generator: Sketch 57.1 (83088) - https://sketch.com -->
    <title>thumbs-down</title>
    <desc>Created with Sketch.</desc>
    <g id="UI" stroke="none" stroke-width="1" fill="none" fill-rule="evenodd">
        <g id="thumbs-down" transform="translate(71.000000, 71.000000) rotate(-180.000000) translate(-71.000000, -71.000000) ">
            <circle id="Oval-Copy" fill="#BB0A21" cx="71" cy="71" r="71"></circle>
            <path d="M39.3482668,91.0026247 C41.4642954,91.0026247 43.1802878,92.7186171 43.1802878,94.8346457 C43.1802878,96.9506743 41.4642954,98.6666667 39.3482668,98.6666667 C37.2322382,98.6666667 35.5162458,96.9506743 35.5162458,94.8346457 C35.5162458,92.7186171 37.2322382,91.0026247 39.3482668,91.0026247 Z M52.3268169,64.7378043 L31,64.7378043 L31,103.000091 L52.3268169,103.000091 L52.3268169,64.7378043 Z" id="Shape" fill="#FFFFFF"></path>
            <path d="M54.8356412,66.6185175 L54.8356412,100.972758 L62.1557607,103.733189 C65.2908861,104.880804 68.8459589,106.138836 72.2960449,107.078288 C75.7443208,108.019549 79.0894199,108.64766 82.6463028,109.062178 C86.1995656,109.482125 89.9609919,109.690289 92.6779799,109.588922 C95.396778,109.483935 97.0711377,109.063988 98.5373337,108.3327 C99.9980994,107.601412 101.252512,106.553353 102.195583,105.403928 C103.135035,104.254503 103.763146,103.000091 104.076296,101.955652 C104.391257,100.911214 104.391257,100.073129 104.492624,99.236854 C104.599421,98.3987691 104.807584,97.5643045 105.017558,96.9361933 C105.225722,96.3098923 105.435696,95.8917549 105.747036,95.2654539 L106.795095,93.0697801 C107.108245,92.3366821 107.316409,91.7085709 107.423206,90.8741063 C107.524572,90.0378315 107.524572,88.9897728 107.524572,88.0521314 C107.524572,87.1108698 107.524572,86.2727849 107.734546,85.3351435 C107.94271,84.3938818 108.362657,83.3476333 108.677618,82.5095484 L109.407096,80.4188614 C109.61888,79.7925604 109.827043,79.1662594 109.827043,78.5381482 C109.827043,77.9100371 109.61888,77.2837361 109.407096,76.6538148 C109.197122,76.0275138 108.988958,75.4012128 108.988958,74.8780885 C108.988958,74.3549643 109.197122,73.9368269 109.512083,73.2037288 C109.827043,72.4742511 110.24156,71.4261924 110.455154,70.2785772 C110.663318,69.1273418 110.663318,67.8729297 110.455154,66.6185175 C110.24156,65.3677256 109.827043,64.1078831 109.093945,62.9602679 C108.362657,61.8108426 107.316409,60.7664042 106.168794,60.0333062 C105.017558,59.3002082 103.763146,58.8820708 101.252512,58.672097 C98.7436872,58.4639334 94.9822608,58.4639334 92.5766133,58.3589465 C90.1727758,58.2557698 89.1265273,58.0476061 88.6052131,57.8376324 C88.0820889,57.6276586 88.0820889,57.419495 88.4984161,56.5832202 C88.9183637,55.7469454 89.7528283,54.2843696 90.3809395,52.7149968 C91.0072405,51.145624 91.4289981,49.4748846 91.6371617,47.5905512 C91.8453254,45.709838 91.8453254,43.6191511 91.6371617,41.7384379 C91.4289981,39.8559146 91.0072405,38.183365 90.1727758,36.7207892 C89.3346909,35.2582134 88.0820889,34.0019911 86.3027423,33.1657164 C84.5252059,32.3312517 82.2263553,31.9113042 80.450629,32.0181012 C78.6730926,32.1212779 77.4168703,32.747579 76.5824056,34.0019911 C75.7443208,35.2582134 75.3279935,37.1389266 74.9098561,39.5445742 C74.4880985,41.9484116 74.0735813,44.8735632 72.3992216,48.2204724 C70.7266721,51.5637614 67.8015205,55.3269979 65.2782152,58.1507829 C62.7567201,60.9745678 60.6425016,62.855281 58.9663318,64.1133134 C57.2955924,65.3677256 56.0647117,65.9922165 54.8356412,66.6185175 Z" id="Path" fill="#FFFFFF"></path>
        </g>
    </g>
</svg>